<svg xmlns="http://www.w3.org/2000/svg" viewBox="0 0 1840 500" width="1840" height="500" preserveAspectRatio="xMidYMid meet" style="width: 100%; height: 100%; transform: translate3d(0px, 0px, 0px);"><defs><clipPath id="__lottie_element_2"><rect width="1840" height="500" x="0" y="0"></rect></clipPath><linearGradient id="__lottie_element_6" spreadMethod="pad" gradientUnits="userSpaceOnUse" x1="-81.30899810791016" y1="91.28099822998047" x2="75.0510025024414" y2="-89.41400146484375"><stop offset="0%" stop-color="rgb(0,101,179)"></stop><stop offset="64%" stop-color="rgb(49,149,210)"></stop><stop offset="100%" stop-color="rgb(99,197,241)"></stop></linearGradient><linearGradient id="__lottie_element_10" spreadMethod="pad" gradientUnits="userSpaceOnUse" x1="-81.30899810791016" y1="91.28099822998047" x2="75.0510025024414" y2="-89.41400146484375"><stop offset="0%" stop-color="rgb(228,12,120)"></stop><stop offset="50%" stop-color="rgb(141,46,140)"></stop><stop offset="100%" stop-color="rgb(53,80,160)"></stop></linearGradient><linearGradient id="__lottie_element_14" spreadMethod="pad" gradientUnits="userSpaceOnUse" x1="-81.30899810791016" y1="91.28099822998047" x2="75.0510025024414" y2="-89.41400146484375"><stop offset="0%" stop-color="rgb(0,101,179)"></stop><stop offset="64%" stop-color="rgb(49,149,210)"></stop><stop offset="100%" stop-color="rgb(99,197,241)"></stop></linearGradient><linearGradient id="__lottie_element_18" spreadMethod="pad" gradientUnits="userSpaceOnUse" x1="-82.97699737548828" y1="83.25" x2="84.63700103759766" y2="-87.10199737548828"><stop offset="0%" stop-color="rgb(0,101,179)"></stop><stop offset="30%" stop-color="rgb(0,139,203)"></stop><stop offset="60%" stop-color="rgb(0,177,227)"></stop><stop offset="80%" stop-color="rgb(49,187,234)"></stop><stop offset="100%" stop-color="rgb(99,197,241)"></stop></linearGradient></defs><g clip-path="url(#__lottie_element_2)"><g transform="matrix(2.2419800758361816,0,0,2.2419800758361816,316,258)" opacity="1" style="display: block;"><g opacity="1" transform="matrix(1,0,0,1,0,0)"><path stroke="url(#__lottie_element_18)" stroke-linecap="round" stroke-linejoin="round" fill-opacity="0" stroke-opacity="1" stroke-width="27" d=" M71,-89.25 C71,-89.25 143,-2.5 91.5,36.5 C34.229000091552734,79.87000274658203 -68.25,-86 -100.25,-73 C-130.72500610351562,-60.619998931884766 -83,85.75 -83,85.75"></path></g></g><g transform="matrix(2.2419800758361816,0,0,2.2419800758361816,316,258)" opacity="1" style="display: block;"><g opacity="1" transform="matrix(1,0,0,1,0,0)"><path stroke="url(#__lottie_element_14)" stroke-linecap="round" stroke-linejoin="round" fill-opacity="0" stroke-opacity="1" stroke-width="26" d=" M-80,91 C-80,91 -85.5,33 -55.5,29.5 C-22.48200035095215,25.648000717163086 3.8359999656677246,83.59600067138672 41.25,50 C90.25,6 71,-90 71,-90"></path></g></g><g transform="matrix(2.2419800758361816,0,0,2.2419800758361816,316,258)" opacity="1" style="display: block;"><g opacity="1" transform="matrix(1,0,0,1,0,0)"><path stroke="url(#__lottie_element_10)" stroke-linecap="round" stroke-linejoin="round" fill-opacity="0" stroke-opacity="1" stroke-width="29" d=" M84.16799926757812,-72.2040023803711 C77.89299774169922,-82.50399780273438 72.6500015258789,-89.45700073242188 71.57099914550781,-90.42900085449219 C71.57099914550781,-90.42900085449219 71.57099914550781,-90.42900085449219 71.57099914550781,-90.42900085449219 C67.28500366210938,-94.28600311279297 92.85700225830078,4.571000099182129 41.25,50 C40.099998474121094,51.012001037597656 38.96099853515625,51.939998626708984 37.832000732421875,52.78799819946289"></path></g></g><g transform="matrix(2.2419800758361816,0,0,2.2419800758361816,316,258)" opacity="0.062099999998615374" style="display: none;"><g opacity="1" transform="matrix(1,0,0,1,0,0)"><path stroke="url(#__lottie_element_6)" stroke-linecap="round" stroke-linejoin="round" fill-opacity="0" stroke-opacity="1" stroke-width="26" d=" M20.514999389648438,60.34600067138672 C27.093000411987305,59.61600112915039 33.96099853515625,56.54499816894531 41.25,50 C55.35599899291992,37.33300018310547 63.805999755859375,20.35700035095215 68.68699645996094,2.6029999256134033"></path></g></g></g></svg>
