<?xml version="1.0" encoding="UTF-8"?><svg xmlns="http://www.w3.org/2000/svg" xmlns:xlink="http://www.w3.org/1999/xlink" width="247.766pt" height="53.9206pt" viewBox="0 0 247.766 53.9206" version="1.1"><defs><clipPath id="clip1">  <path d="M 32 0 L 58 0 L 58 53.921875 L 32 53.921875 Z M 32 0 "/></clipPath><clipPath id="clip2">  <path d="M 184 0 L 209 0 L 209 53.921875 L 184 53.921875 Z M 184 0 "/></clipPath><clipPath id="clip3">  <path d="M 237 0 L 247.765625 0 L 247.765625 11 L 237 11 Z M 237 0 "/></clipPath></defs><g id="surface1"><path style=" stroke:none;fill-rule:nonzero;fill:rgb(34.901428%,22.3526%,52.941895%);fill-opacity:1;" d="M 17.253906 6.300781 C 17.253906 4.644531 16.425781 3.402344 12.765625 3.402344 C 9.097656 3.402344 8.273438 4.644531 8.273438 6.300781 L 8.273438 10.789062 C 8.273438 12.148438 8.746094 13.507812 10.046875 14.628906 L 22.449219 25.265625 C 24.226562 26.742188 25.289062 28.574219 25.289062 30.464844 L 25.289062 37.199219 C 25.289062 41.222656 20.558594 43.464844 12.761719 43.464844 C 4.136719 43.464844 -0.00390625 41.515625 0 37.199219 L 0 31.355469 L 7.800781 31.355469 L 7.796875 36.964844 C 7.796875 38.976562 9.335938 40.15625 12.761719 40.15625 C 15.953125 40.15625 17.488281 38.976562 17.488281 36.964844 L 17.488281 30.996094 C 17.488281 29.519531 16.898438 28.394531 15.246094 26.921875 L 3.78125 16.9375 C 1.65625 15.101562 0.472656 13.683594 0.472656 11.5 L 0.472656 6.359375 C 0.472656 2.164062 4.847656 0.09375 12.765625 0.09375 C 21.511719 0.09375 25.050781 2.164062 25.050781 6.0625 L 25.050781 11.5 L 17.253906 11.5 Z M 17.253906 6.300781 "/><path style=" stroke:none;fill-rule:nonzero;fill:rgb(34.901428%,22.3526%,52.941895%);fill-opacity:1;" d="M 100.269531 36.042969 C 100.269531 38.40625 101.210938 40.0625 106.175781 40.0625 C 111.140625 40.0625 112.085938 38.40625 112.085938 36.042969 L 112.085938 7.324219 C 112.085938 4.964844 111.140625 3.308594 106.179688 3.308594 C 101.214844 3.308594 100.269531 4.964844 100.269531 7.324219 Z M 92.472656 7.207031 C 92.472656 3.011719 95.660156 0 106.179688 0 C 116.695312 0 119.886719 3.011719 119.886719 7.207031 L 119.882812 36.160156 C 119.882812 40.355469 116.695312 43.371094 106.175781 43.371094 C 95.660156 43.371094 92.46875 40.355469 92.46875 36.160156 Z M 92.472656 7.207031 "/><path style=" stroke:none;fill-rule:nonzero;fill:rgb(34.901428%,22.3526%,52.941895%);fill-opacity:1;" d="M 135.777344 20.503906 C 139.324219 20.503906 141.804688 20.03125 141.804688 17.84375 L 141.804688 6.324219 C 141.804688 4.136719 139.324219 3.664062 135.777344 3.664062 L 132 3.664062 L 132 20.503906 Z M 124.199219 0.355469 L 136.609375 0.355469 C 146.65625 0.355469 149.609375 2.007812 149.609375 6.855469 L 149.601562 17.3125 C 149.601562 22.15625 146.648438 23.8125 136.609375 23.8125 L 132 23.8125 L 132 43.015625 L 124.199219 43.015625 Z M 124.199219 0.355469 "/><path style=" stroke:none;fill-rule:nonzero;fill:rgb(34.901428%,22.3526%,52.941895%);fill-opacity:1;" d="M 169.085938 6.207031 C 169.085938 4.550781 168.257812 3.308594 164.597656 3.308594 C 160.929688 3.308594 160.101562 4.550781 160.101562 6.207031 L 160.101562 10.695312 C 160.101562 12.054688 160.574219 13.414062 161.875 14.535156 L 174.285156 25.171875 C 176.054688 26.648438 177.117188 28.480469 177.117188 30.371094 L 177.117188 37.109375 C 177.117188 41.128906 172.394531 43.371094 164.59375 43.371094 C 155.96875 43.371094 151.828125 41.421875 151.828125 37.105469 L 151.828125 31.257812 L 159.628906 31.257812 L 159.628906 36.871094 C 159.628906 38.882812 161.167969 40.0625 164.59375 40.0625 C 167.785156 40.0625 169.320312 38.882812 169.320312 36.871094 L 169.320312 30.902344 C 169.320312 29.425781 168.734375 28.304688 167.074219 26.828125 L 155.613281 16.839844 C 153.480469 15.007812 152.304688 13.589844 152.304688 11.40625 L 152.304688 6.261719 C 152.304688 2.066406 156.675781 0 164.597656 0 C 173.339844 0 176.882812 2.066406 176.882812 5.972656 L 176.882812 11.40625 L 169.085938 11.40625 Z M 169.085938 6.207031 "/><path style=" stroke:none;fill-rule:nonzero;fill:rgb(34.901428%,22.3526%,52.941895%);fill-opacity:1;" d="M 226.640625 6.207031 C 226.640625 4.550781 225.8125 3.308594 222.152344 3.308594 C 218.488281 3.308594 217.660156 4.550781 217.660156 6.207031 L 217.660156 10.699219 C 217.660156 12.054688 218.132812 13.414062 219.433594 14.535156 L 231.839844 25.175781 C 233.613281 26.652344 234.671875 28.480469 234.671875 30.371094 L 234.671875 37.109375 C 234.671875 41.128906 229.949219 43.371094 222.152344 43.371094 C 213.523438 43.371094 209.382812 41.421875 209.382812 37.109375 L 209.382812 31.257812 L 217.1875 31.257812 L 217.183594 36.871094 C 217.183594 38.882812 218.722656 40.0625 222.152344 40.0625 C 225.335938 40.0625 226.875 38.882812 226.875 36.871094 L 226.875 30.902344 C 226.875 29.425781 226.285156 28.304688 224.628906 26.828125 L 213.167969 16.839844 C 211.039062 15.011719 209.859375 13.59375 209.859375 11.40625 L 209.859375 6.261719 C 209.859375 2.074219 214.230469 0 222.152344 0 C 230.894531 0 234.441406 2.074219 234.441406 5.972656 L 234.441406 11.40625 L 226.640625 11.40625 Z M 226.640625 6.207031 "/><g clip-path="url(#clip1)" clip-rule="nonzero"><path style=" stroke:none;fill-rule:nonzero;fill:rgb(34.901428%,22.3526%,52.941895%);fill-opacity:1;" d="M 49.425781 0.355469 L 57.238281 0.355469 L 40.144531 53.914062 L 32.335938 53.914062 Z M 49.425781 0.355469 "/></g><path style=" stroke:none;fill-rule:nonzero;fill:rgb(34.901428%,22.3526%,52.941895%);fill-opacity:1;" d="M 37.105469 33.625 L 26.539062 0.453125 L 34.347656 0.453125 L 41.007812 21.363281 Z M 37.105469 33.625 "/><g clip-path="url(#clip2)" clip-rule="nonzero"><path style=" stroke:none;fill-rule:nonzero;fill:rgb(34.901428%,22.3526%,52.941895%);fill-opacity:1;" d="M 201.171875 0.355469 L 208.980469 0.355469 L 191.886719 53.921875 L 184.078125 53.921875 Z M 201.171875 0.355469 "/></g><path style=" stroke:none;fill-rule:nonzero;fill:rgb(34.901428%,22.3526%,52.941895%);fill-opacity:1;" d="M 188.886719 33.53125 L 178.320312 0.355469 L 186.128906 0.355469 L 192.792969 21.269531 Z M 188.886719 33.53125 "/><path style=" stroke:none;fill-rule:nonzero;fill:rgb(34.901428%,22.3526%,52.941895%);fill-opacity:1;" d="M 87.660156 43.015625 L 87.699219 43.015625 L 87.699219 6.867188 C 87.699219 2.019531 84.742188 0.363281 74.703125 0.363281 L 59.660156 0.363281 L 59.65625 43.03125 L 67.453125 43.03125 L 67.457031 43.015625 L 67.457031 3.671875 L 73.875 3.671875 C 77.417969 3.671875 79.898438 4.148438 79.898438 6.332031 L 79.898438 43.015625 Z M 87.660156 43.015625 "/><g clip-path="url(#clip3)" clip-rule="nonzero"><path style=" stroke:none;fill-rule:nonzero;fill:rgb(34.901428%,22.3526%,52.941895%);fill-opacity:1;" d="M 242.738281 5.28125 C 243.472656 5.28125 244.128906 5.230469 244.128906 4.351562 C 244.128906 3.636719 243.488281 3.511719 242.882812 3.511719 L 241.699219 3.511719 L 241.699219 5.28125 Z M 241.699219 8.5 L 240.828125 8.5 L 240.828125 2.773438 L 243.011719 2.773438 C 244.367188 2.773438 245.039062 3.269531 245.039062 4.398438 C 245.039062 5.429688 244.390625 5.875 243.550781 5.980469 L 245.179688 8.5 L 244.210938 8.5 L 242.695312 6.019531 L 241.699219 6.019531 Z M 242.753906 9.777344 C 245 9.777344 246.769531 8.015625 246.769531 5.621094 C 246.769531 3.269531 245 1.496094 242.753906 1.496094 C 240.472656 1.496094 238.703125 3.269531 238.703125 5.621094 C 238.703125 8.015625 240.472656 9.777344 242.753906 9.777344 M 237.703125 5.621094 C 237.703125 2.773438 240.015625 0.667969 242.753906 0.667969 C 245.457031 0.667969 247.765625 2.773438 247.765625 5.621094 C 247.765625 8.5 245.457031 10.605469 242.753906 10.605469 C 240.015625 10.605469 237.703125 8.5 237.703125 5.621094 "/></g></g></svg>